<svg xmlns="http://www.w3.org/2000/svg" viewBox="0 0 512 512"> <rect width="512" height="512" rx="100" fill="#000000"/> <g fill="none" stroke="#22d3a5" stroke-linecap="round"> <circle cx="256" cy="256" r="150" stroke-width="14"/> <circle cx="256" cy="256" r="190" stroke-width="3" opacity="0.7"/> <line x1="256" y1="40" x2="256" y2="80" stroke-width="6"/> <line x1="256" y1="432" x2="256" y2="472" stroke-width="6"/> <line x1="40" y1="256" x2="80" y2="256" stroke-width="6"/> <line x1="432" y1="256" x2="472" y2="256" stroke-width="6"/> <line x1="100" y1="100" x2="128" y2="128" stroke-width="4"/> <line x1="412" y1="100" x2="384" y2="128" stroke-width="4"/> <line x1="100" y1="412" x2="128" y2="384" stroke-width="4"/> <line x1="412" y1="412" x2="384" y2="384" stroke-width="4"/> <line x1="166" y1="62" x2="174" y2="86" stroke-width="3"/> <line x1="346" y1="62" x2="338" y2="86" stroke-width="3"/> <line x1="62" y1="166" x2="86" y2="174" stroke-width="3"/> <line x1="450" y1="166" x2="426" y2="174" stroke-width="3"/> <line x1="62" y1="346" x2="86" y2="338" stroke-width="3"/> <line x1="450" y1="346" x2="426" y2="338" stroke-width="3"/> <line x1="166" y1="450" x2="174" y2="426" stroke-width="3"/> <line x1="346" y1="450" x2="338" y2="426" stroke-width="3"/> <line x1="106" y1="256" x2="170" y2="256" stroke-width="4"/> <line x1="342" y1="256" x2="406" y2="256" stroke-width="4"/> <line x1="256" y1="106" x2="256" y2="170" stroke-width="4"/> <line x1="256" y1="342" x2="256" y2="406" stroke-width="4"/> </g> <text x="256" y="332" text-anchor="middle" fill="#22d3a5" font-family="Arial Black, sans-serif" font-weight="900" font-size="220" letter-spacing="-8">M</text> </svg>